<?xml version="1.0" encoding="utf-8"?>
<!-- Generator: Adobe Illustrator 23.1.0, SVG Export Plug-In . SVG Version: 6.00 Build 0)  -->
<svg version="1.1" id="Capa_1" xmlns="http://www.w3.org/2000/svg" xmlns:xlink="http://www.w3.org/1999/xlink" x="0px" y="0px"
	 viewBox="0 0 197.4 197.4" style="enable-background:new 0 0 197.4 197.4;" xml:space="preserve">
<style type="text/css">
	.st0{fill:#FFFFFF;}
</style>
<path class="st0" d="M182.4,178H15c-8.3,0-15-6.7-15-15V34.4c0-8.3,6.7-15,15-15h167.4c8.3,0,15,6.7,15,15V163
	C197.4,171.3,190.7,178,182.4,178z M15,25.4c-5,0-9,4-9,9V163c0,5,4,9,9,9h167.4c5,0,9-4,9-9V34.4c0-5-4-9-9-9
	C182.4,25.4,15,25.4,15,25.4z M98.7,170.4c-4.7,0-8.5-3.8-8.5-8.5s3.8-8.5,8.5-8.5s8.5,3.8,8.5,8.5S103.4,170.4,98.7,170.4z
	 M98.7,159.3c-1.4,0-2.5,1.1-2.5,2.5s1.1,2.5,2.5,2.5s2.5-1.1,2.5-2.5S100.1,159.3,98.7,159.3z M182.8,152H14.6c-1.7,0-3-1.3-3-3V37
	c0-1.7,1.3-3,3-3h168.2c1.7,0,3,1.3,3,3v112C185.8,150.7,184.5,152,182.8,152z M17.6,146h162.2V50.7H17.6V146z M17.6,44.7h162.2V40
	H17.6V44.7z M142.3,131.2h-27.2c-5.2,0-9.4-4.2-9.4-9.4c0-5.2,4.2-9.4,9.4-9.4h27.2c5.2,0,9.4,4.2,9.4,9.4
	C151.7,127.1,147.5,131.2,142.3,131.2z M115.1,118.5c-1.9,0-3.4,1.5-3.4,3.4s1.5,3.4,3.4,3.4h27.2c1.9,0,3.4-1.5,3.4-3.4
	s-1.5-3.4-3.4-3.4H115.1z M92.1,131.2H38.5c-1.7,0-3-1.3-3-3V65.8c0-1.7,1.3-3,3-3h53.6c1.7,0,3,1.3,3,3v62.5
	C95.1,129.9,93.8,131.2,92.1,131.2z M41.5,125.2h47.6V68.8H41.5V125.2z M79.6,104.3c-0.8,0-1.5-0.3-2.1-0.9c-1.2-1.2-1.2-3.1,0-4.2
	l3.1-3.1L77.5,93c-1.2-1.2-1.2-3.1,0-4.2c1.2-1.2,3.1-1.2,4.2,0l5.2,5.2c0,0,0,0,0,0c1.2,1.2,1.2,3,0,4.2l0,0c0,0,0,0,0,0l0,0
	c0,0,0,0,0,0l0,0c0,0,0,0,0,0c0,0,0,0,0,0c0,0,0,0,0,0c0,0,0,0,0,0c0,0,0,0,0,0c0,0,0,0,0,0c0,0,0,0,0,0l-5.2,5.2
	C81.2,104,80.4,104.3,79.6,104.3z M51,104.3c-0.8,0-1.5-0.3-2.1-0.9l-5.2-5.2c0,0,0,0,0,0c0,0,0,0,0,0c0,0,0,0,0,0c0,0,0,0,0,0l0,0
	c-0.9-0.9-1.1-2.3-0.6-3.4v0c0,0,0,0,0,0c0,0,0,0,0,0c0,0,0,0,0,0c0.1-0.3,0.3-0.6,0.6-0.8c0,0,0,0,0,0l5.2-5.2
	c1.2-1.2,3.1-1.2,4.2,0c1.2,1.2,1.2,3.1,0,4.2L50,96.1l3.1,3.1c1.2,1.2,1.2,3.1,0,4.2C52.5,104,51.7,104.3,51,104.3z M133.8,100
	h-25.1c-1.7,0-3-1.3-3-3s1.3-3,3-3h25.1c1.7,0,3,1.3,3,3S135.5,100,133.8,100z M155.8,80.7h-47.1c-1.7,0-3-1.3-3-3s1.3-3,3-3h47.1
	c1.7,0,3,1.3,3,3S157.5,80.7,155.8,80.7z M140.2,68.8h-31.4c-1.7,0-3-1.3-3-3s1.3-3,3-3h31.4c1.7,0,3,1.3,3,3S141.8,68.8,140.2,68.8
	z"/>
</svg>
