<?xml version="1.0" encoding="utf-8"?>
<!-- Generator: Adobe Illustrator 23.1.0, SVG Export Plug-In . SVG Version: 6.00 Build 0)  -->
<svg version="1.1" id="Capa_1" xmlns="http://www.w3.org/2000/svg" xmlns:xlink="http://www.w3.org/1999/xlink" x="0px" y="0px"
	 viewBox="0 0 480.1 480.1" style="enable-background:new 0 0 480.1 480.1;" xml:space="preserve">
<style type="text/css">
	.st0{fill:none;stroke:#231F20;stroke-width:29.4742;stroke-miterlimit:10;}
	.st1{fill:#231F20;}
	.st2{fill:none;}
</style>
<g>
	<path class="st0" d="M240.1,19C151.7,19,71.7,71.7,36.9,153l-1.7,4.1c-45.8,113.1,8.7,241.9,121.7,287.8
		c26.4,10.7,54.6,16.2,83.1,16.2c122.1,0,221.1-98.9,221.1-221C461.2,118,362.2,19,240.1,19z"/>
	<g>
		<path class="st1" d="M419,355.1l-11.7-11.7v-27.3c0-1.2-0.2-2.3-0.8-3.4l-29.7-59.2v-28.6c0-2.5-1.3-4.9-3.4-6.3l-22.8-15.2
			c-1.8-1.2-4-1.6-6.1-1l-27.9,7l-46.9-20.1l-6.5-45.2l17.9-17.9h38.4l12.9,19.4c1.2,1.7,3,2.9,5.1,3.3l45.6,7.6
			c1.2,0.2,2.5,0.1,3.6-0.3l42-14C464.1,209.7,460.4,291,419,355.1z"/>
		<path class="st1" d="M387.7,86.9l-12.4,8.2l-34.5-6.9l-22.4-7.4c-1.4-0.5-2.8-0.5-4.2-0.2L286,87.7l-12.4-4.1l9.2-18.4h25.7
			c1.2,0,2.3-0.3,3.4-0.8l26.3-13.2C356.3,60.7,373,72.7,387.7,86.9z"/>
		<path class="st1" d="M156.8,44.2L175,56.3c0.9,0.6,1.9,1,3,1.2l36.8,6.1l-3.6,10.8l-19.2,6.4c-1.7,0.6-3.2,1.7-4.1,3.3l-21.8,36.4
			l-35.1,21l-51.7,7.4c-3.7,0.5-6.5,3.7-6.5,7.5v22.8c0,2,0.8,3.9,2.2,5.4l13,13v13.1l-31.6-21.1l-11.5-34.4
			C66.7,105.3,106.7,65.6,156.8,44.2z"/>
		<path class="st1" d="M135.2,293.4l-34.4-6.9L88,261.1v-17.9l28.3-28.3l10.5,21c1.3,2.6,3.9,4.2,6.8,4.2h48.9l20.6,34.3
			c1.4,2.3,3.8,3.7,6.5,3.7h21.1l-5.3,26.7l-28.8,28.8c-1.4,1.4-2.2,3.4-2.2,5.4v19l-27.4,20.5c-1.9,1.4-3,3.7-3,6.1V412l-9.5-3.1
			l-13.4-33.4v-74.6C141.2,297.3,138.7,294.2,135.2,293.4z"/>
		<path class="st2" d="M112.3,410.3c-71.7-53.8-102-146.7-75.8-232.4l6.3,18.9c0.5,1.6,1.6,3,3,3.9L83.7,226l-8.6,8.7
			c-1.4,1.4-2.2,3.4-2.2,5.4v22.8c0,1.2,0.3,2.3,0.8,3.4l15.2,30.4c1.1,2.1,3,3.6,5.3,4.1l31.9,6.4v69.8c0,1,0.2,1.9,0.5,2.8
			l15.2,38c0.8,2.1,2.5,3.7,4.7,4.4l22.8,7.6c0.8,0.3,1.6,0.4,2.4,0.4c4.2,0,7.6-3.4,7.6-7.6v-34.2l27.4-20.5c1.9-1.4,3-3.7,3-6.1
			V342l28.2-28.2c1.1-1.1,1.8-2.4,2.1-3.9l7.6-38c0.8-4.1-1.8-8.1-6-8.9c-0.5-0.1-1-0.1-1.5-0.1H214l-20.6-34.3
			c-1.4-2.3-3.8-3.7-6.5-3.7h-48.5l-13.1-26.2c-1.1-2.2-3.2-3.7-5.6-4.1c-2.4-0.4-4.9,0.4-6.6,2.1l-9.9,9.8v-12.1
			c0-2-0.8-3.9-2.2-5.4l-13-13V163l46.7-6.7c1-0.1,2-0.5,2.8-1l38-22.8c1.1-0.6,2-1.5,2.6-2.6l21.4-35.6l20.1-6.7
			c2.3-0.7,4.1-2.5,4.8-4.8l7.6-22.8c1.3-4-0.8-8.3-4.8-9.6c-0.4-0.1-0.7-0.2-1.1-0.3l-44-7.3l-7.7-5.2
			C222.2,22.1,274,24,320.6,43.1L306.7,50h-28.6c-2.9,0-5.5,1.6-6.8,4.2L256,84.6c-1.9,3.8-0.3,8.3,3.4,10.2c0.3,0.2,0.7,0.3,1,0.4
			l22.8,7.6c1.4,0.5,2.8,0.5,4.2,0.2l28.3-7.1l20.7,6.9c0.3,0.1,0.6,0.2,0.9,0.2l38,7.6c2,0.4,4,0,5.7-1.1L398.4,98
			c8.5,9.5,16.2,19.7,22.9,30.6L383.9,141l-40.5-6.8L330,114.2c-1.4-2.1-3.8-3.4-6.3-3.4h-45.6c-2,0-3.9,0.8-5.4,2.2l-22.8,22.8
			c-1.7,1.7-2.5,4.1-2.2,6.5l7.6,53.2c0.4,2.6,2.1,4.9,4.6,5.9l53.2,22.8c1.5,0.7,3.2,0.8,4.8,0.4l27.1-6.8l16.6,11.1v26.3
			c0,1.2,0.2,2.3,0.8,3.4l29.7,59.2v28.6c0,2,0.8,3.9,2.2,5.4l15.9,15.9C339.7,461.8,206.3,480.8,112.3,410.3z"/>
	</g>
</g>
</svg>
