<?xml version="1.0" encoding="utf-8"?>
<!-- Generator: Adobe Illustrator 23.1.0, SVG Export Plug-In . SVG Version: 6.00 Build 0)  -->
<svg version="1.1" id="레이어_1" xmlns="http://www.w3.org/2000/svg" xmlns:xlink="http://www.w3.org/1999/xlink" x="0px"
	 y="0px" viewBox="0 0 22.68 22.68" style="enable-background:new 0 0 22.68 22.68;" xml:space="preserve">
<style type="text/css">
	.st0{fill:#FFFFFF;}
	.st1{fill-rule:evenodd;clip-rule:evenodd;fill:#FFFFFF;}
	.st2{fill:none;stroke:#FFFFFF;stroke-miterlimit:10;}
</style>
<g>
	<g>
		<path class="st0" d="M12.22,7.01c-0.03,0.05-0.04,0.12-0.04,0.19c-0.01,0.23,0.05,0.45,0.09,0.68c0.15,0.84,0.22,1.69,0.22,2.54v0
			c0.28-0.37,0.41-0.84,0.45-1.31c0.04-0.43,0.02-0.87-0.1-1.29c-0.07-0.25-0.18-0.5-0.36-0.67c-0.07-0.06-0.15-0.12-0.24-0.13
			C12.23,7.01,12.22,7.01,12.22,7.01z M10.62,6.85C9.85,6.85,9.08,6.9,8.32,7L8.31,7C8.23,7.73,8.25,8.47,8.46,9.19
			c0.01,0.04,0.03,0.09,0.04,0.13c0.12,0.36,0.3,0.7,0.57,0.98c0.26,0.27,0.6,0.46,0.96,0.56c0.56,0.16,1.17,0.12,1.73,0.01
			c0.06-0.01,0.11-0.02,0.16-0.04l0,0c0.03-1-0.04-1.99-0.23-2.97c-0.06-0.32-0.13-0.66-0.03-0.98l0,0
			C11.32,6.86,10.98,6.85,10.62,6.85z M13.1,7.05c0.23,0.37,0.34,0.8,0.38,1.23c0.08,0.73-0.01,1.49-0.35,2.13
			c-0.16,0.3-0.38,0.58-0.67,0.77l0,0c-0.04,0.84-0.16,1.67-0.39,2.49l0,0c0.89-0.15,1.78-0.34,2.6-0.71
			c0.54-0.24,1.04-0.57,1.42-1.02c0.3-0.36,0.5-0.8,0.6-1.26c0.12-0.55,0.12-1.14-0.1-1.66c-0.23-0.52-0.69-0.94-1.17-1.22
			C14.71,7.39,13.9,7.18,13.1,7.05C13.09,7.04,13.09,7.04,13.1,7.05z M11.25,14.35c-0.91,0.12-1.83,0.22-2.73,0.39
			c-0.43,0.08-0.87,0.18-1.27,0.34c-0.06,0.02-0.11,0.05-0.16,0.07c-0.04,0.02-0.08,0.04-0.12,0.06c-0.3,0.16-0.56,0.4-0.7,0.71
			c-0.08,0.19-0.1,0.4-0.07,0.6c0.06,0.39,0.29,0.75,0.59,1c0.33,0.28,0.77,0.43,1.21,0.38c0.32-0.03,0.63-0.18,0.89-0.37
			c0.8-0.59,1.47-1.36,1.95-2.24c0.17-0.31,0.31-0.62,0.44-0.95l0,0C11.27,14.34,11.26,14.35,11.25,14.35z M10.65,6.3
			c1.14,0,2.28,0.09,3.38,0.38c0.73,0.19,1.44,0.46,2.04,0.9c0.55,0.4,0.98,0.96,1.15,1.63c0.09,0.36,0.1,0.73,0.07,1.1
			c-0.05,0.57-0.22,1.14-0.53,1.62c-0.21,0.33-0.47,0.62-0.78,0.87c-0.48,0.39-1.04,0.66-1.62,0.87c-0.8,0.29-1.64,0.45-2.49,0.58
			c-0.3,0.87-0.73,1.69-1.3,2.4c-0.4,0.5-0.86,0.94-1.37,1.32c-0.26,0.19-0.55,0.35-0.86,0.43c-0.4,0.1-0.82,0.08-1.21-0.05
			c-0.67-0.23-1.22-0.78-1.43-1.45c-0.11-0.36-0.12-0.76,0.01-1.12c0.1-0.28,0.29-0.54,0.51-0.74c0.43-0.38,1-0.58,1.55-0.72
			c0.65-0.16,1.32-0.26,1.98-0.34c0.56-0.07,1.13-0.14,1.69-0.22c0.23-0.76,0.36-1.55,0.42-2.34l0-0.01
			c-0.77,0.15-1.6,0.17-2.33-0.12c-0.55-0.23-1.02-0.65-1.31-1.17c-0.33-0.58-0.47-1.24-0.52-1.9C7.71,7.84,7.71,7.46,7.75,7.08l0,0
			c-0.5,0.08-0.99,0.18-1.46,0.34C6.11,7.48,5.93,7.54,5.77,7.64L5.73,7.66C5.69,7.67,5.66,7.68,5.63,7.68
			c-0.13,0-0.25-0.1-0.27-0.23c-0.02-0.09,0.02-0.2,0.09-0.26c0.03-0.03,0.07-0.05,0.11-0.07c0.36-0.19,0.76-0.3,1.17-0.4
			C7.11,6.63,7.49,6.56,7.88,6.5l0.01-0.01l0.04-0.03c0.03-0.01,0.06-0.03,0.09-0.03c0.05-0.01,0.1,0,0.14,0.01
			c0.01,0,0.02,0.01,0.03,0.02C9,6.36,9.8,6.3,10.61,6.3C10.62,6.3,10.64,6.3,10.65,6.3z"/>
		<path class="st1" d="M9.15,4.2c0.18,0,0.33,0.31,0.33,0.69c0,0.38-0.15,0.69-0.33,0.69S8.82,5.28,8.82,4.9
			C8.82,4.51,8.97,4.2,9.15,4.2z"/>
		<path class="st1" d="M11.88,4.2c0.18,0,0.33,0.31,0.33,0.69c0,0.38-0.15,0.69-0.33,0.69c-0.18,0-0.33-0.31-0.33-0.69
			C11.54,4.51,11.69,4.2,11.88,4.2z"/>
	</g>
	<circle class="st2" cx="11.34" cy="11.34" r="10.78"/>
</g>
</svg>
