<svg height="512" viewBox="0 0 512 512" width="512" xmlns="http://www.w3.org/2000/svg"><g><path d="m496 48h-480a8 8 0 0 0 -8 8v32a8 8 0 0 0 8 8h24v276a28.031 28.031 0 0 0 28 28h180v17.38a24 24 0 1 0 16 0v-17.38h180a28.031 28.031 0 0 0 28-28v-276h24a8 8 0 0 0 8-8v-32a8 8 0 0 0 -8-8zm-240 400a8 8 0 1 1 8-8 8.011 8.011 0 0 1 -8 8zm200-76a12.01 12.01 0 0 1 -12 12h-376a12.01 12.01 0 0 1 -12-12v-276h400zm32-292h-464v-16h464z"/><path d="m224 232h-24v-8a8 8 0 0 0 -8-8h-24v-40a8 8 0 0 0 -8-8h-32a8 8 0 0 0 -8 8v56h-24a8 8 0 0 0 -8 8v64a8 8 0 0 0 8 8h128a8 8 0 0 0 8-8v-64a8 8 0 0 0 -8-8zm-104 64h-16v-48h16zm32 0h-16v-112h16zm32 0h-16v-64h16zm32 0h-16v-48h16z"/><path d="m264 216h168a8 8 0 0 0 8-8v-40a8 8 0 0 0 -8-8h-168a8 8 0 0 0 -8 8v40a8 8 0 0 0 8 8zm8-40h152v24h-152z"/><path d="m264 240h168a8 8 0 0 0 0-16h-168a8 8 0 0 0 0 16z"/><path d="m264 264h168a8 8 0 0 0 0-16h-168a8 8 0 0 0 0 16z"/><path d="m264 288h168a8 8 0 0 0 0-16h-168a8 8 0 0 0 0 16z"/><path d="m264 312h88a8 8 0 0 0 0-16h-88a8 8 0 0 0 0 16z"/><path d="m384 296h-8a8 8 0 0 0 0 16h8a8 8 0 0 0 0-16z"/></g></svg>