<?xml version="1.0" encoding="iso-8859-1"?>
<!-- Generator: Adobe Illustrator 17.1.0, SVG Export Plug-In . SVG Version: 6.00 Build 0)  -->
<!DOCTYPE svg PUBLIC "-//W3C//DTD SVG 1.1//EN" "http://www.w3.org/Graphics/SVG/1.1/DTD/svg11.dtd">
<svg version="1.1" id="Capa_1" xmlns="http://www.w3.org/2000/svg" xmlns:xlink="http://www.w3.org/1999/xlink" x="0px" y="0px"
	 viewBox="0 0 197.405 197.405" style="enable-background:new 0 0 197.405 197.405;" xml:space="preserve">
<path d="M182.394,178.018H15.012C6.734,178.018,0,171.284,0,163.007V34.399c0-8.277,6.734-15.012,15.012-15.012h167.382
	c8.277,0,15.012,6.734,15.012,15.012v128.608C197.405,171.284,190.671,178.018,182.394,178.018z M15.012,25.387
	C10.043,25.387,6,29.429,6,34.399v128.608c0,4.969,4.043,9.012,9.012,9.012h167.382c4.969,0,9.012-4.042,9.012-9.012V34.399
	c0-4.969-4.043-9.012-9.012-9.012H15.012z M98.702,170.398c-4.71,0-8.541-3.832-8.541-8.542s3.831-8.542,8.541-8.542
	s8.542,3.832,8.542,8.542S103.412,170.398,98.702,170.398z M98.702,159.315c-1.401,0-2.541,1.14-2.541,2.542s1.14,2.542,2.541,2.542
	s2.542-1.14,2.542-2.542S100.104,159.315,98.702,159.315z M182.825,152.012H14.58c-1.657,0-3-1.343-3-3v-112c0-1.657,1.343-3,3-3
	h168.245c1.657,0,3,1.343,3,3v112C185.825,150.669,184.482,152.012,182.825,152.012z M17.58,146.012h162.245V50.679H17.58V146.012z
	 M17.58,44.679h162.245v-4.667H17.58V44.679z M142.336,131.248h-27.247c-5.16,0-9.358-4.198-9.358-9.358
	c0-5.161,4.198-9.359,9.358-9.359h27.247c5.161,0,9.359,4.198,9.359,9.359C151.695,127.05,147.497,131.248,142.336,131.248z
	 M115.089,118.531c-1.852,0-3.358,1.507-3.358,3.359s1.507,3.358,3.358,3.358h27.247c1.853,0,3.359-1.506,3.359-3.358
	s-1.507-3.359-3.359-3.359H115.089z M92.146,131.248H38.536c-1.657,0-3-1.343-3-3V65.777c0-1.657,1.343-3,3-3h53.609
	c1.657,0,3,1.343,3,3v62.471C95.146,129.905,93.803,131.248,92.146,131.248z M41.536,125.248h47.609V68.777H41.536V125.248z
	 M79.637,104.303c-0.768,0-1.535-0.293-2.121-0.878c-1.172-1.172-1.172-3.071,0-4.243l3.079-3.08l-3.079-3.079
	c-1.172-1.171-1.172-3.071,0-4.242c1.172-1.172,3.07-1.172,4.242,0l5.192,5.192c0.003,0.003,0.006,0.005,0.008,0.008
	c1.155,1.156,1.172,3.02,0.048,4.194c0,0,0,0,0,0c-0.003,0.002-0.005,0.004-0.007,0.006v0c-0.005,0.004-0.009,0.009-0.014,0.014
	c0,0-0.001,0.001-0.001,0.001c-0.002,0.002-0.004,0.003-0.006,0.005c-0.001,0.001-0.001,0.002-0.002,0.002
	c-0.002,0.001-0.003,0.003-0.005,0.004c0,0.001-0.001,0.001-0.002,0.002c-0.002,0.001-0.003,0.003-0.005,0.004
	c-0.001,0.001-0.002,0.002-0.002,0.003c-0.002,0.001-0.003,0.002-0.005,0.004l-5.2,5.201
	C81.173,104.01,80.404,104.303,79.637,104.303z M50.973,104.303c-0.768,0-1.535-0.293-2.121-0.879l-5.2-5.201
	c-0.001-0.001-0.002-0.001-0.003-0.002c-0.002-0.001-0.003-0.003-0.004-0.004c-0.001,0-0.001-0.001-0.002-0.001
	c-0.002-0.001-0.004-0.003-0.005-0.005l0,0c-0.901-0.913-1.099-2.26-0.591-3.362v-0.001c0.001-0.002,0.003-0.005,0.004-0.007
	c0-0.001,0.001-0.003,0.002-0.005c0.001-0.001,0.001-0.002,0.002-0.003c0.144-0.308,0.343-0.596,0.597-0.85
	c0.003-0.002,0.005-0.005,0.008-0.008l5.192-5.192c1.172-1.172,3.07-1.172,4.242,0c1.172,1.171,1.172,3.071,0,4.242l-3.079,3.079
	l3.079,3.08c1.172,1.171,1.172,3.071,0,4.243C52.508,104.01,51.74,104.303,50.973,104.303z M133.8,100.012H108.73
	c-1.657,0-3-1.343-3-3s1.343-3,3-3H133.8c1.657,0,3,1.343,3,3S135.457,100.012,133.8,100.012z M155.826,80.734H108.73
	c-1.657,0-3-1.343-3-3s1.343-3,3-3h47.096c1.657,0,3,1.343,3,3S157.483,80.734,155.826,80.734z M140.159,68.777H108.73
	c-1.657,0-3-1.343-3-3s1.343-3,3-3h31.429c1.657,0,3,1.343,3,3S141.816,68.777,140.159,68.777z"/>
<g>
</g>
<g>
</g>
<g>
</g>
<g>
</g>
<g>
</g>
<g>
</g>
<g>
</g>
<g>
</g>
<g>
</g>
<g>
</g>
<g>
</g>
<g>
</g>
<g>
</g>
<g>
</g>
<g>
</g>
</svg>
